<svg width="113" height="113" viewBox="0 0 113 113" fill="none" xmlns="http://www.w3.org/2000/svg">
<g clip-path="url(#clip0)">
<path d="M56.098 112.196C87.0801 112.196 112.196 87.0801 112.196 56.098C112.196 25.1159 87.0801 0 56.098 0C25.1159 0 0 25.1159 0 56.098C0 87.0801 25.1159 112.196 56.098 112.196Z" fill="black"/>
<path d="M70.201 58.294H60.191V94.966H45.025V58.294H37.812V45.406H45.025V37.066C45.025 31.102 47.858 21.763 60.326 21.763L71.56 21.81V34.32H63.409C62.072 34.32 60.192 34.988 60.192 37.833V45.418H71.526L70.201 58.294Z" fill="white"/>
</g>
<defs>
<clipPath id="clip0">
<rect width="112.196" height="112.196" fill="white"/>
</clipPath>
</defs>
</svg>
