<svg width="403" height="213" viewBox="0 0 403 213" fill="none" xmlns="http://www.w3.org/2000/svg">
<path d="M52.432 0.608002V13.76H34.576V68H18.16V13.76H0.303986V0.608002H52.432Z" fill="black"/>
<path d="M77.0867 13.76V27.392H99.0707V40.064H77.0867V54.848H101.951V68H60.6707V0.608002H101.951V13.76H77.0867Z" fill="black"/>
<path d="M154.56 56.096H129.408L125.376 68H108.192L132.576 0.608002H151.584L175.968 68H158.592L154.56 56.096ZM150.336 43.424L141.984 18.752L133.728 43.424H150.336Z" fill="black"/>
<path d="M259.71 0.608002V68H243.293V27.584L228.221 68H214.973L199.805 27.488V68H183.389V0.608002H202.781L221.693 47.264L240.413 0.608002H259.71Z" fill="black"/>
<path d="M48.688 93.92C47.472 91.68 45.712 89.984 43.408 88.832C41.168 87.616 38.512 87.008 35.44 87.008C30.128 87.008 25.872 88.768 22.672 92.288C19.472 95.744 17.872 100.384 17.872 106.208C17.872 112.416 19.536 117.28 22.864 120.8C26.256 124.256 30.896 125.984 36.784 125.984C40.816 125.984 44.208 124.96 46.96 122.912C49.776 120.864 51.824 117.92 53.104 114.08H32.272V101.984H67.984V117.248C66.768 121.344 64.688 125.152 61.744 128.672C58.864 132.192 55.184 135.04 50.704 137.216C46.224 139.392 41.168 140.48 35.536 140.48C28.88 140.48 22.928 139.04 17.68 136.16C12.496 133.216 8.43199 129.152 5.48799 123.968C2.60799 118.784 1.16799 112.864 1.16799 106.208C1.16799 99.552 2.60799 93.632 5.48799 88.448C8.43199 83.2 12.496 79.136 17.68 76.256C22.864 73.312 28.784 71.84 35.44 71.84C43.504 71.84 50.288 73.792 55.792 77.696C61.36 81.6 65.04 87.008 66.832 93.92H48.688Z" fill="black"/>
<path d="M108.949 140.672C102.613 140.672 96.789 139.2 91.477 136.256C86.229 133.312 82.037 129.216 78.901 123.968C75.829 118.656 74.293 112.704 74.293 106.112C74.293 99.52 75.829 93.6 78.901 88.352C82.037 83.104 86.229 79.008 91.477 76.064C96.789 73.12 102.613 71.648 108.949 71.648C115.285 71.648 121.077 73.12 126.325 76.064C131.637 79.008 135.797 83.104 138.805 88.352C141.877 93.6 143.413 99.52 143.413 106.112C143.413 112.704 141.877 118.656 138.805 123.968C135.733 129.216 131.573 133.312 126.325 136.256C121.077 139.2 115.285 140.672 108.949 140.672ZM108.949 125.696C114.325 125.696 118.613 123.904 121.813 120.32C125.077 116.736 126.709 112 126.709 106.112C126.709 100.16 125.077 95.424 121.813 91.904C118.613 88.32 114.325 86.528 108.949 86.528C103.509 86.528 99.157 88.288 95.893 91.808C92.693 95.328 91.093 100.096 91.093 106.112C91.093 112.064 92.693 116.832 95.893 120.416C99.157 123.936 103.509 125.696 108.949 125.696Z" fill="black"/>
<path d="M184.418 140.672C178.082 140.672 172.258 139.2 166.946 136.256C161.698 133.312 157.506 129.216 154.37 123.968C151.298 118.656 149.762 112.704 149.762 106.112C149.762 99.52 151.298 93.6 154.37 88.352C157.506 83.104 161.698 79.008 166.946 76.064C172.258 73.12 178.082 71.648 184.418 71.648C190.754 71.648 196.546 73.12 201.794 76.064C207.106 79.008 211.266 83.104 214.274 88.352C217.346 93.6 218.882 99.52 218.882 106.112C218.882 112.704 217.346 118.656 214.274 123.968C211.202 129.216 207.042 133.312 201.794 136.256C196.546 139.2 190.754 140.672 184.418 140.672ZM184.418 125.696C189.794 125.696 194.082 123.904 197.282 120.32C200.546 116.736 202.178 112 202.178 106.112C202.178 100.16 200.546 95.424 197.282 91.904C194.082 88.32 189.794 86.528 184.418 86.528C178.978 86.528 174.626 88.288 171.362 91.808C168.162 95.328 166.562 100.096 166.562 106.112C166.562 112.064 168.162 116.832 171.362 120.416C174.626 123.936 178.978 125.696 184.418 125.696Z" fill="black"/>
<path d="M253.262 72.608C260.366 72.608 266.575 74.016 271.887 76.832C277.199 79.648 281.295 83.616 284.174 88.736C287.118 93.792 288.59 99.648 288.59 106.304C288.59 112.896 287.118 118.752 284.174 123.872C281.295 128.992 277.167 132.96 271.79 135.776C266.478 138.592 260.302 140 253.262 140H228.014V72.608H253.262ZM252.206 125.792C258.414 125.792 263.246 124.096 266.702 120.704C270.158 117.312 271.887 112.512 271.887 106.304C271.887 100.096 270.158 95.264 266.702 91.808C263.246 88.352 258.414 86.624 252.206 86.624H244.43V125.792H252.206Z" fill="black"/>
<path d="M20.368 157.76V171.392H42.352V184.064H20.368V198.848H45.232V212H3.95199V144.608H45.232V157.76H20.368Z" fill="black"/>
<path d="M116.177 212H99.7615L72.3055 170.432V212H55.8895V144.608H72.3055L99.7615 186.368V144.608H116.177V212Z" fill="black"/>
<path d="M159.949 212.672C153.613 212.672 147.789 211.2 142.477 208.256C137.229 205.312 133.037 201.216 129.901 195.968C126.829 190.656 125.293 184.704 125.293 178.112C125.293 171.52 126.829 165.6 129.901 160.352C133.037 155.104 137.229 151.008 142.477 148.064C147.789 145.12 153.613 143.648 159.949 143.648C166.285 143.648 172.077 145.12 177.325 148.064C182.637 151.008 186.797 155.104 189.805 160.352C192.877 165.6 194.413 171.52 194.413 178.112C194.413 184.704 192.877 190.656 189.805 195.968C186.733 201.216 182.573 205.312 177.325 208.256C172.077 211.2 166.285 212.672 159.949 212.672ZM159.949 197.696C165.325 197.696 169.613 195.904 172.813 192.32C176.077 188.736 177.709 184 177.709 178.112C177.709 172.16 176.077 167.424 172.813 163.904C169.613 160.32 165.325 158.528 159.949 158.528C154.509 158.528 150.157 160.288 146.893 163.808C143.693 167.328 142.093 172.096 142.093 178.112C142.093 184.064 143.693 188.832 146.893 192.416C150.157 195.936 154.509 197.696 159.949 197.696Z" fill="black"/>
<path d="M219.674 144.608V184.928C219.674 188.96 220.666 192.064 222.65 194.24C224.634 196.416 227.546 197.504 231.386 197.504C235.226 197.504 238.17 196.416 240.218 194.24C242.266 192.064 243.29 188.96 243.29 184.928V144.608H259.706V184.832C259.706 190.848 258.426 195.936 255.866 200.096C253.306 204.256 249.85 207.392 245.498 209.504C241.21 211.616 236.41 212.672 231.098 212.672C225.786 212.672 221.018 211.648 216.794 209.6C212.634 207.488 209.338 204.352 206.906 200.192C204.474 195.968 203.258 190.848 203.258 184.832V144.608H219.674Z" fill="black"/>
<path d="M315.969 165.92C314.753 163.68 312.993 161.984 310.689 160.832C308.449 159.616 305.793 159.008 302.721 159.008C297.409 159.008 293.153 160.768 289.953 164.288C286.753 167.744 285.153 172.384 285.153 178.208C285.153 184.416 286.817 189.28 290.145 192.8C293.537 196.256 298.177 197.984 304.065 197.984C308.097 197.984 311.489 196.96 314.241 194.912C317.057 192.864 319.105 189.92 320.385 186.08H299.553V173.984H335.265V189.248C334.049 193.344 331.969 197.152 329.025 200.672C326.145 204.192 322.465 207.04 317.985 209.216C313.505 211.392 308.449 212.48 302.817 212.48C296.161 212.48 290.209 211.04 284.961 208.16C279.777 205.216 275.713 201.152 272.769 195.968C269.889 190.784 268.449 184.864 268.449 178.208C268.449 171.552 269.889 165.632 272.769 160.448C275.713 155.2 279.777 151.136 284.961 148.256C290.145 145.312 296.065 143.84 302.721 143.84C310.785 143.84 317.569 145.792 323.073 149.696C328.641 153.6 332.321 159.008 334.113 165.92H315.969Z" fill="black"/>
<path d="M402.726 144.608V212H386.31V184.256H360.774V212H344.358V144.608H360.774V171.008H386.31V144.608H402.726Z" fill="black"/>
</svg>
